<?xml version="1.0" encoding="UTF-8"?>
<svg width="24px" height="13px" viewBox="0 0 24 13" version="1.1" xmlns="http://www.w3.org/2000/svg" xmlns:xlink="http://www.w3.org/1999/xlink">
    <!-- Generator: Sketch 48.2 (47327) - http://www.bohemiancoding.com/sketch -->
    <title>Arrow</title>
    <desc>Created with Sketch.</desc>
    <defs></defs>
    <g id="01---Home-Page" stroke="none" stroke-width="1" fill="none" fill-rule="evenodd" transform="translate(-1311.000000, -1023.000000)">
        <g id="Trasportatori" transform="translate(215.000000, 908.000000)" fill="#2176B1" fill-rule="nonzero">
            <g id="descrizione" transform="translate(600.000000, 65.000000)">
                <g id="frecce" transform="translate(455.000000, 50.000000)">
                    <path d="M57.3290744,1.210927 C57.3290744,1.41956423 57.3986201,1.66297434 57.5724845,1.8368387 L61.2584089,5.52276318 L42.5506036,5.52276318 C42.0637834,5.52276318 41.6812818,5.90526477 41.6812818,6.39208499 C41.6812818,6.8789052 42.0637834,7.2614068 42.5506036,7.2614068 L61.2584089,7.2614068 L57.5724845,10.9125584 C57.3986201,11.0864228 57.3290744,11.29506 57.3290744,11.5384701 C57.3290744,11.7818802 57.3986201,11.9905174 57.5724845,12.1643818 C57.9202132,12.5121105 58.4765791,12.5121105 58.789535,12.1643818 L63.9359201,7.01799669 C63.970693,6.98322382 64.0054659,6.91367807 64.0402387,6.8789052 C64.2141031,6.6354951 64.2141031,6.32253924 64.1097845,6.07912914 C64.0750116,5.97481052 64.0054659,5.8704919 63.9359201,5.80094616 L58.789535,0.585015293 C58.4418063,0.237286569 57.8854403,0.237286569 57.5724845,0.585015293 C57.3986201,0.758879655 57.3290744,0.96751689 57.3290744,1.210927 Z" id="Arrow"></path>
                </g>
            </g>
        </g>
    </g>
</svg>