<?xml version="1.0" encoding="UTF-8"?>
<svg width="19px" height="43px" viewBox="0 0 19 43" version="1.1" xmlns="http://www.w3.org/2000/svg" xmlns:xlink="http://www.w3.org/1999/xlink">
    <!-- Generator: Sketch 48.2 (47327) - http://www.bohemiancoding.com/sketch -->
    <title>icon pharmacy</title>
    <desc>Created with Sketch.</desc>
    <defs>
        <polygon id="path-1" points="18.8991944 42.3886004 18.8991944 0.107313183 7.15272267e-21 0.107313183 0 42.3886004 18.8991944 42.3886004"></polygon>
    </defs>
    <g id="01---Home-Page" stroke="none" stroke-width="1" fill="none" fill-rule="evenodd" transform="translate(-690.000000, -713.000000)" opacity="0.699999988">
        <g id="Settori-intervento" transform="translate(54.000000, 628.000000)">
            <g id="1-farmaceutica" transform="translate(561.000000, 36.000000)">
                <g id="icon-pharmacy" transform="translate(75.000000, 49.000000)">
                    <path d="M18,3.90375071 C18,5.03563765 16.2787454,5.9537777 16.2787454,5.9537777 C16.2873621,6.09951421 16.2998956,35.9714517 16.2998956,35.9714517 C16.2998956,39.7722061 13.3190336,43 9.64178417,43 L9.35795472,43 C5.68070531,43 2.69984333,39.8086402 2.69984333,36.0078858 C2.69984333,36.0078858 2.71237674,6.02637607 2.72125457,5.88036967 C2.72125457,5.88036967 1,5.03563765 1,3.90375071 C1,2.77186377 1.88804411,2 2.98315055,2 L16.0165883,2 C17.1119559,2 18,2.77186377 18,3.90375071 Z" id="Fill-1" fill="#FFFFFF"></path>
                    <g id="Group-5"></g>
                    <mask id="mask-2" fill="white">
                        <use xlink:href="#path-1"></use>
                    </mask>
                    <g id="Clip-4"></g>
                    <path d="M2.86361667,1.84498076 C2.23213056,1.84498076 1.718075,2.3643328 1.718075,3.00324789 C1.718075,3.33631641 2.39204722,3.94107063 2.99503333,4.25892689 L3.48929722,4.5202042 L3.45631111,5.08492614 C3.45103333,5.46523275 3.44100556,24.6358882 3.43625556,34.7146804 C3.43625556,37.987986 6.06960278,40.6511997 9.3062,40.6511997 L9.59304722,40.6511997 C12.8301722,40.6511997 15.4627278,37.987986 15.4627278,34.7144135 C15.4587694,24.6358882 15.4482139,5.46523275 15.4418806,5.05209968 L15.4321167,4.51246462 L15.9065889,4.25839312 C16.5072,3.94107063 17.1814361,3.33631641 17.1814361,3.00324789 C17.1814361,2.3643328 16.6673806,1.84498076 16.0356306,1.84498076 L2.86361667,1.84498076 Z M9.59304722,42.3886004 L9.3062,42.3886004 C5.12250556,42.3886004 1.718075,38.9463586 1.718075,34.7144135 C1.72546389,17.6590634 1.73258889,7.86903736 1.73892222,5.52714933 C1.06838056,5.08759496 -0.000105555556,4.199946 -0.000105555556,3.00324789 C-0.000105555556,1.40649392 1.28476944,0.107313183 2.86361667,0.107313183 L16.0356306,0.107313183 C17.6144778,0.107313183 18.8993528,1.40649392 18.8993528,3.00324789 C18.8993528,4.199946 17.8308667,5.08759496 17.1605889,5.52714933 C17.1669222,7.86903736 17.1740472,17.6587965 17.1814361,34.7141466 C17.1814361,38.9463586 13.7767417,42.3886004 9.59304722,42.3886004 Z" id="Fill-3" fill="#A1A5B1" mask="url(#mask-2)"></path>
                    <polygon id="Fill-6" fill="#A1A5B1" mask="url(#mask-2)" points="2 24.75 16 24.75 16 24 2 24"></polygon>
                    <path d="M15.6992259,9.75 L10.2999447,9.75 C10.1338002,9.75 10,9.58264177 10,9.37517289 C10,9.16735823 10.1338002,9 10.2999447,9 L15.6992259,9 C15.8653704,9 16,9.16735823 16,9.37517289 C16,9.58264177 15.8653704,9.75 15.6992259,9.75" id="Fill-8" fill="#A1A5B1" mask="url(#mask-2)"></path>
                    <path d="M14.7493857,12.75 L12.2499232,12.75 C12.1119472,12.75 12,12.582105 12,12.3751727 C12,12.1675495 12.1119472,12 12.2499232,12 L14.7493857,12 C14.8878225,12 15,12.1675495 15,12.3751727 C15,12.582105 14.8878225,12.75 14.7493857,12.75" id="Fill-9" fill="#A1A5B1" mask="url(#mask-2)"></path>
                    <path d="M15.6992259,16.75 L10.2999447,16.75 C10.1338002,16.75 10,16.5824505 10,16.3751727 C10,16.1675495 10.1338002,16 10.2999447,16 L15.6992259,16 C15.8653704,16 16,16.1675495 16,16.3751727 C16,16.5824505 15.8653704,16.75 15.6992259,16.75" id="Fill-10" fill="#A1A5B1" mask="url(#mask-2)"></path>
                    <path d="M14.7493857,20.75 L12.2499232,20.75 C12.1119472,20.75 12,20.5820276 12,20.3746544 C12,20.1672811 12.1119472,20 12.2499232,20 L14.7493857,20 C14.8878225,20 15,20.1672811 15,20.3746544 C15,20.5820276 14.8878225,20.75 14.7493857,20.75" id="Fill-11" fill="#A1A5B1" mask="url(#mask-2)"></path>
                    <path d="M15.6992259,24.75 L10.2999447,24.75 C10.1338002,24.75 10,24.5823733 10,24.375 C10,24.1672811 10.1338002,24 10.2999447,24 L15.6992259,24 C15.8653704,24 16,24.1672811 16,24.375 C16,24.5823733 15.8653704,24.75 15.6992259,24.75" id="Fill-12" fill="#A1A5B1" mask="url(#mask-2)"></path>
                    <path d="M14.7493857,28.75 L12.2499232,28.75 C12.1119472,28.75 12,28.5827189 12,28.375 C12,28.1679724 12.1119472,28 12.2499232,28 L14.7493857,28 C14.8878225,28 15,28.1679724 15,28.375 C15,28.5827189 14.8878225,28.75 14.7493857,28.75" id="Fill-13" fill="#A1A5B1" mask="url(#mask-2)"></path>
                    <path d="M15.6992259,32.75 L10.2999447,32.75 C10.1338002,32.75 10,32.5827189 10,32.3753456 C10,32.1679724 10.1338002,32 10.2999447,32 L15.6992259,32 C15.8653704,32 16,32.1679724 16,32.3753456 C16,32.5827189 15.8653704,32.75 15.6992259,32.75" id="Fill-14" fill="#A1A5B1" mask="url(#mask-2)"></path>
                    <path d="M14.7493857,35.75 L12.2499232,35.75 C12.1119472,35.75 12,35.5824505 12,35.3748273 C12,35.1675495 12.1119472,35 12.2499232,35 L14.7493857,35 C14.8878225,35 15,35.1675495 15,35.3748273 C15,35.5824505 14.8878225,35.75 14.7493857,35.75" id="Fill-15" fill="#A1A5B1" mask="url(#mask-2)"></path>
                    <path d="M3,22 L3,34.7942213 C3,38.6113731 6.36016127,42 10.1458193,42 L10.4371892,42 C14.2228473,42 17,38.6113731 17,34.7942213 L17,22 L3,22 Z" id="Fill-20" fill="#A1A5B1" opacity="0.800000012" mask="url(#mask-2)"></path>
                </g>
            </g>
        </g>
    </g>
</svg>