<?xml version="1.0" encoding="UTF-8"?>
<svg width="27px" height="39px" viewBox="0 0 27 39" version="1.1" xmlns="http://www.w3.org/2000/svg" xmlns:xlink="http://www.w3.org/1999/xlink">
    <!-- Generator: Sketch 48.2 (47327) - http://www.bohemiancoding.com/sketch -->
    <title>icon_11_</title>
    <desc>Created with Sketch.</desc>
    <defs></defs>
    <g id="01---Home-Page" stroke="none" stroke-width="1" fill="none" fill-rule="evenodd" transform="translate(-886.000000, -716.000000)" opacity="0.699999988">
        <g id="Settori-intervento" transform="translate(54.000000, 628.000000)" fill="#A1A5B1" fill-rule="nonzero">
            <g id="2-meccanica" transform="translate(760.000000, 36.000000)">
                <g id="10" transform="translate(72.000000, 52.000000)">
                    <path d="M25.5306226,39 L1.46907234,39 C0.661021545,39 0,38.3518445 0,37.5595214 L0,34.4404786 C0,33.6481555 0.661021545,33 1.46907234,33 L25.5309277,33 C26.3389785,33 27,33.6481555 27,34.4404786 L27,37.5595214 C26.999695,38.3518445 26.3386734,39 25.5306226,39 Z M25,30.5595214 L25,27.4404786 C25,26.6481555 24.3314599,26 23.5142183,26 L3.48578174,26 C2.66854008,26 2,26.6481555 2,27.4404786 L2,30.5595214 C2,31.3518445 2.66854008,32 3.48578174,32 L23.5142183,32 C24.3314599,32 25,31.3518445 25,30.5595214 Z M18.9421979,18.8991373 L15.0894954,18.8991373 L15.0894954,10.2067388 C17.2128928,9.53505068 18.7449991,7.56470474 18.7449991,5.22687726 C18.7449991,2.33782748 16.3990663,0 13.5,0 C10.6009337,0 8.2550009,2.33782748 8.2550009,5.22687726 C8.2550009,7.56470474 9.7871072,9.53505068 11.9105046,10.2067388 L11.9105046,18.8991373 L8.05780212,18.8991373 C7.21222841,18.8991373 6.4493805,19.2413697 5.89624708,19.7922878 C5.34311366,20.3498984 5,21.1101106 5,21.9463745 C5,23.6252905 6.37306518,25 8.05810738,25 L18.9421979,25 C19.7877716,25 20.5506195,24.6577676 21.1037529,24.1004612 C21.6568863,23.5492389 22,22.7826383 22,21.9463745 C22,20.2738468 20.6269348,18.8991373 18.9421979,18.8991373 Z" id="icon_11_"></path>
                </g>
            </g>
        </g>
    </g>
</svg>