<?xml version="1.0" encoding="UTF-8"?>
<svg width="74px" height="45px" viewBox="0 0 74 45" version="1.1" xmlns="http://www.w3.org/2000/svg" xmlns:xlink="http://www.w3.org/1999/xlink">
    <!-- Generator: Sketch 48.2 (47327) - http://www.bohemiancoding.com/sketch -->
    <title>icon</title>
    <desc>Created with Sketch.</desc>
    <defs></defs>
    <g id="01---Home-Page" stroke="none" stroke-width="1" fill="none" fill-rule="evenodd" transform="translate(-1067.000000, -711.000000)">
        <g id="Settori-intervento" transform="translate(54.000000, 628.000000)" fill="#A1A5B1" fill-rule="nonzero">
            <g id="3-alimentare" transform="translate(960.000000, 36.000000)">
                <g id="icona" transform="translate(53.000000, 47.000000)">
                    <path class="icon" d="M22.5399889,21.059328 L19.8389916,21.059328 L22.3954578,23.5863097 L25.0791113,23.5863097 L22.5399889,21.059328 Z M32.7317443,21.059328 L30.030747,21.059328 L32.5872132,23.5863097 L35.2708668,23.5863097 L32.7317443,21.059328 Z M42.9234998,21.059328 L40.2225025,21.059328 L42.7789687,23.5863097 L45.4626222,23.5863097 L42.9234998,21.059328 Z M48.0196666,21.059328 L45.3186693,21.059328 L47.8751354,23.5863097 L50.558789,23.5863097 L48.0196666,21.059328 Z M37.827333,21.059328 L35.1269138,21.059328 L37.68338,23.5863097 L40.3670336,23.5863097 L37.827333,21.059328 Z M27.6355775,21.059328 L24.9345802,21.059328 L27.4910464,23.5863097 L30.1747,23.5863097 L27.6355775,21.059328 Z M17.4438221,21.059328 L14.7428248,21.059328 L17.299291,23.5863097 L19.9829445,23.5863097 L17.4438221,21.059328 Z M17.4438221,21.059328 L14.7428248,21.059328 L17.299291,23.5863097 L19.9829445,23.5863097 L17.4438221,21.059328 Z M22.5399889,21.059328 L19.8389916,21.059328 L22.3954578,23.5863097 L25.0791113,23.5863097 L22.5399889,21.059328 Z M32.7317443,21.059328 L30.030747,21.059328 L32.5872132,23.5863097 L35.2708668,23.5863097 L32.7317443,21.059328 Z M42.9234998,21.059328 L40.2225025,21.059328 L42.7789687,23.5863097 L45.4626222,23.5863097 L42.9234998,21.059328 Z M48.0196666,21.059328 L45.3186693,21.059328 L47.8751354,23.5863097 L50.558789,23.5863097 L48.0196666,21.059328 Z M37.827333,21.059328 L35.1269138,21.059328 L37.68338,23.5863097 L40.3670336,23.5863097 L37.827333,21.059328 Z M27.6355775,21.059328 L24.9345802,21.059328 L27.4910464,23.5863097 L30.1747,23.5863097 L27.6355775,21.059328 Z M22.5399889,21.059328 L19.8389916,21.059328 L22.3954578,23.5863097 L25.0791113,23.5863097 L22.5399889,21.059328 Z M17.4438221,21.059328 L14.7428248,21.059328 L17.299291,23.5863097 L19.9829445,23.5863097 L17.4438221,21.059328 Z M17.4438221,21.059328 L14.7428248,21.059328 L17.299291,23.5863097 L19.9829445,23.5863097 L17.4438221,21.059328 Z M22.5399889,21.059328 L19.8389916,21.059328 L22.3954578,23.5863097 L25.0791113,23.5863097 L22.5399889,21.059328 Z M27.6355775,21.059328 L24.9345802,21.059328 L27.4910464,23.5863097 L30.1747,23.5863097 L27.6355775,21.059328 Z M32.7317443,21.059328 L30.030747,21.059328 L32.5872132,23.5863097 L35.2708668,23.5863097 L32.7317443,21.059328 Z M42.9234998,21.059328 L40.2225025,21.059328 L42.7789687,23.5863097 L45.4626222,23.5863097 L42.9234998,21.059328 Z M48.0196666,21.059328 L45.3186693,21.059328 L47.8751354,23.5863097 L50.558789,23.5863097 L48.0196666,21.059328 Z M37.827333,21.059328 L35.1269138,21.059328 L37.68338,23.5863097 L40.3670336,23.5863097 L37.827333,21.059328 Z M32.7317443,21.059328 L30.030747,21.059328 L32.5872132,23.5863097 L35.2708668,23.5863097 L32.7317443,21.059328 Z M27.6355775,21.059328 L24.9345802,21.059328 L27.4910464,23.5863097 L30.1747,23.5863097 L27.6355775,21.059328 Z M22.5399889,21.059328 L19.8389916,21.059328 L22.3954578,23.5863097 L25.0791113,23.5863097 L22.5399889,21.059328 Z M17.4438221,21.059328 L14.7428248,21.059328 L17.299291,23.5863097 L19.9829445,23.5863097 L17.4438221,21.059328 Z M17.4438221,21.059328 L14.7428248,21.059328 L17.299291,23.5863097 L19.9829445,23.5863097 L17.4438221,21.059328 Z M22.5399889,21.059328 L19.8389916,21.059328 L22.3954578,23.5863097 L25.0791113,23.5863097 L22.5399889,21.059328 Z M27.6355775,21.059328 L24.9345802,21.059328 L27.4910464,23.5863097 L30.1747,23.5863097 L27.6355775,21.059328 Z M32.7317443,21.059328 L30.030747,21.059328 L32.5872132,23.5863097 L35.2708668,23.5863097 L32.7317443,21.059328 Z M37.827333,21.059328 L35.1269138,21.059328 L37.68338,23.5863097 L40.3670336,23.5863097 L37.827333,21.059328 Z M42.9234998,21.059328 L40.2225025,21.059328 L42.7789687,23.5863097 L45.4626222,23.5863097 L42.9234998,21.059328 Z M48.0196666,21.059328 L45.3186693,21.059328 L47.8751354,23.5863097 L50.558789,23.5863097 L48.0196666,21.059328 Z M40.2225025,21.059328 L42.7789687,23.5863097 L45.4626222,23.5863097 L42.9229216,21.059328 L40.2225025,21.059328 Z M35.1269138,21.059328 L37.68338,23.5863097 L40.3670336,23.5863097 L37.827333,21.059328 L35.1269138,21.059328 Z M30.030747,21.059328 L32.5872132,23.5863097 L35.2708668,23.5863097 L32.7311662,21.059328 L30.030747,21.059328 Z M24.9351583,21.059328 L27.4916245,23.5863097 L30.1752781,23.5863097 L27.6355775,21.059328 L24.9351583,21.059328 Z M19.8389916,21.059328 L22.3954578,23.5863097 L25.0791113,23.5863097 L22.5394107,21.059328 L19.8389916,21.059328 Z M14.7434029,21.059328 L17.2998691,23.5863097 L19.9835227,23.5863097 L17.4438221,21.059328 L14.7434029,21.059328 Z M69.7791136,18.3133067 C67.9614904,18.3133067 66.407492,19.4589635 65.8212738,21.059328 L64.4285721,21.059328 C64.1655254,20.5117293 63.740604,20.0145899 63.1630577,19.6441723 L37.9637703,3.30222098 L37.9637703,0 L25.7925169,0 L25.7925169,3.53788912 L1.65524408,18.8861351 C-0.553191214,20.3012908 -0.553191214,23.5106207 1.66391595,24.9177487 L23.7546283,38.9012984 L20.9859904,42.1696887 L17.6820093,42.1696887 L17.6820093,45 L47.1276206,45 L47.1276206,42.1696887 L44.4185295,42.1696887 L41.6834229,38.9769875 L63.1035109,25.6671849 C63.9186663,25.1614445 64.4453377,24.4034073 64.6661812,23.5863097 L65.7021802,23.5863097 C66.1860703,25.3718829 67.8337249,26.6861199 69.7791136,26.6861199 C72.1060644,26.6861199 74,24.8076556 74,22.4997133 C74,20.191771 72.1060644,18.3133067 69.7791136,18.3133067 Z M3.85500751,24.7743982 C2.23279038,24.7743982 0.925072935,23.4773634 0.925072935,21.8683979 C0.925072935,20.2680335 2.23279038,18.9623976 3.85500751,18.9623976 C5.46855278,18.9623976 6.78494209,20.2680335 6.78494209,21.8683979 C6.78494209,23.47679 5.46855278,24.7743982 3.85500751,24.7743982 Z M36.298772,35.4637546 L29.1982478,35.4637546 L10.4456259,23.5863097 L14.8873559,23.5863097 L12.3476553,21.059328 L9.11189289,21.059328 L28.8583107,8.49093388 L35.2454293,8.49093388 L54.6438162,21.059328 L50.4142579,21.059328 L52.9707241,23.5863097 L55.4167685,23.5863097 L36.298772,35.4637546 Z M60.6487946,25.2205048 C59.0265774,25.2205048 57.71886,23.92347 57.71886,22.3225321 C57.71886,20.7135667 59.0265774,19.4165318 60.6487946,19.4165318 C62.2623398,19.4165318 63.5787292,20.7135667 63.5787292,22.3225321 C63.5787292,23.92347 62.2623398,25.2205048 60.6487946,25.2205048 Z M69.7791136,24.1591381 C68.8535364,24.1591381 68.1060215,23.4177296 68.1060215,22.4997133 C68.1060215,21.581697 68.8535364,20.8402885 69.7791136,20.8402885 C70.7046908,20.8402885 71.4522057,21.581697 71.4522057,22.4997133 C71.4522057,23.4177296 70.7046908,24.1591381 69.7791136,24.1591381 Z M45.3186693,21.059328 L47.8751354,23.5863097 L50.558789,23.5863097 L48.0190884,21.059328 L45.3186693,21.059328 Z M40.2225025,21.059328 L42.7789687,23.5863097 L45.4626222,23.5863097 L42.9229216,21.059328 L40.2225025,21.059328 Z M35.1269138,21.059328 L37.68338,23.5863097 L40.3670336,23.5863097 L37.827333,21.059328 L35.1269138,21.059328 Z M30.030747,21.059328 L32.5872132,23.5863097 L35.2708668,23.5863097 L32.7311662,21.059328 L30.030747,21.059328 Z M24.9351583,21.059328 L27.4916245,23.5863097 L30.1752781,23.5863097 L27.6355775,21.059328 L24.9351583,21.059328 Z M19.8389916,21.059328 L22.3954578,23.5863097 L25.0791113,23.5863097 L22.5394107,21.059328 L19.8389916,21.059328 Z M14.7434029,21.059328 L17.2998691,23.5863097 L19.9835227,23.5863097 L17.4438221,21.059328 L14.7434029,21.059328 Z M17.4438221,21.059328 L14.7428248,21.059328 L17.299291,23.5863097 L19.9829445,23.5863097 L17.4438221,21.059328 Z M22.5399889,21.059328 L19.8389916,21.059328 L22.3954578,23.5863097 L25.0791113,23.5863097 L22.5399889,21.059328 Z M27.6355775,21.059328 L24.9345802,21.059328 L27.4910464,23.5863097 L30.1747,23.5863097 L27.6355775,21.059328 Z M32.7317443,21.059328 L30.030747,21.059328 L32.5872132,23.5863097 L35.2708668,23.5863097 L32.7317443,21.059328 Z M37.827333,21.059328 L35.1269138,21.059328 L37.68338,23.5863097 L40.3670336,23.5863097 L37.827333,21.059328 Z M42.9234998,21.059328 L40.2225025,21.059328 L42.7789687,23.5863097 L45.4626222,23.5863097 L42.9234998,21.059328 Z M48.0196666,21.059328 L45.3186693,21.059328 L47.8751354,23.5863097 L50.558789,23.5863097 L48.0196666,21.059328 Z M37.827333,21.059328 L35.1269138,21.059328 L37.68338,23.5863097 L40.3670336,23.5863097 L37.827333,21.059328 Z M32.7317443,21.059328 L30.030747,21.059328 L32.5872132,23.5863097 L35.2708668,23.5863097 L32.7317443,21.059328 Z M27.6355775,21.059328 L24.9345802,21.059328 L27.4910464,23.5863097 L30.1747,23.5863097 L27.6355775,21.059328 Z M22.5399889,21.059328 L19.8389916,21.059328 L22.3954578,23.5863097 L25.0791113,23.5863097 L22.5399889,21.059328 Z M17.4438221,21.059328 L14.7428248,21.059328 L17.299291,23.5863097 L19.9829445,23.5863097 L17.4438221,21.059328 Z M17.4438221,21.059328 L14.7428248,21.059328 L17.299291,23.5863097 L19.9829445,23.5863097 L17.4438221,21.059328 Z M22.5399889,21.059328 L19.8389916,21.059328 L22.3954578,23.5863097 L25.0791113,23.5863097 L22.5399889,21.059328 Z M27.6355775,21.059328 L24.9345802,21.059328 L27.4910464,23.5863097 L30.1747,23.5863097 L27.6355775,21.059328 Z M32.7317443,21.059328 L30.030747,21.059328 L32.5872132,23.5863097 L35.2708668,23.5863097 L32.7317443,21.059328 Z M42.9234998,21.059328 L40.2225025,21.059328 L42.7789687,23.5863097 L45.4626222,23.5863097 L42.9234998,21.059328 Z M48.0196666,21.059328 L45.3186693,21.059328 L47.8751354,23.5863097 L50.558789,23.5863097 L48.0196666,21.059328 Z M37.827333,21.059328 L35.1269138,21.059328 L37.68338,23.5863097 L40.3670336,23.5863097 L37.827333,21.059328 Z M27.6355775,21.059328 L24.9345802,21.059328 L27.4910464,23.5863097 L30.1747,23.5863097 L27.6355775,21.059328 Z M22.5399889,21.059328 L19.8389916,21.059328 L22.3954578,23.5863097 L25.0791113,23.5863097 L22.5399889,21.059328 Z M17.4438221,21.059328 L14.7428248,21.059328 L17.299291,23.5863097 L19.9829445,23.5863097 L17.4438221,21.059328 Z M17.4438221,21.059328 L14.7428248,21.059328 L17.299291,23.5863097 L19.9829445,23.5863097 L17.4438221,21.059328 Z M22.5399889,21.059328 L19.8389916,21.059328 L22.3954578,23.5863097 L25.0791113,23.5863097 L22.5399889,21.059328 Z M32.7317443,21.059328 L30.030747,21.059328 L32.5872132,23.5863097 L35.2708668,23.5863097 L32.7317443,21.059328 Z M42.9234998,21.059328 L40.2225025,21.059328 L42.7789687,23.5863097 L45.4626222,23.5863097 L42.9234998,21.059328 Z M48.0196666,21.059328 L45.3186693,21.059328 L47.8751354,23.5863097 L50.558789,23.5863097 L48.0196666,21.059328 Z M37.827333,21.059328 L35.1269138,21.059328 L37.68338,23.5863097 L40.3670336,23.5863097 L37.827333,21.059328 Z M27.6355775,21.059328 L24.9345802,21.059328 L27.4910464,23.5863097 L30.1747,23.5863097 L27.6355775,21.059328 Z M17.4438221,21.059328 L14.7428248,21.059328 L17.299291,23.5863097 L19.9829445,23.5863097 L17.4438221,21.059328 Z M22.5399889,21.059328 L19.8389916,21.059328 L22.3954578,23.5863097 L25.0791113,23.5863097 L22.5399889,21.059328 Z M32.7317443,21.059328 L30.030747,21.059328 L32.5872132,23.5863097 L35.2708668,23.5863097 L32.7317443,21.059328 Z M42.9234998,21.059328 L40.2225025,21.059328 L42.7789687,23.5863097 L45.4626222,23.5863097 L42.9234998,21.059328 Z M48.0196666,21.059328 L45.3186693,21.059328 L47.8751354,23.5863097 L50.558789,23.5863097 L48.0196666,21.059328 Z M37.827333,21.059328 L35.1269138,21.059328 L37.68338,23.5863097 L40.3670336,23.5863097 L37.827333,21.059328 Z M27.6355775,21.059328 L24.9345802,21.059328 L27.4910464,23.5863097 L30.1747,23.5863097 L27.6355775,21.059328 Z M17.4438221,21.059328 L14.7428248,21.059328 L17.299291,23.5863097 L19.9829445,23.5863097 L17.4438221,21.059328 Z"></path>
                </g>
            </g>
        </g>
    </g>
</svg>