<?xml version="1.0" encoding="UTF-8"?>
<svg width="46px" height="43px" viewBox="0 0 46 43" version="1.1" xmlns="http://www.w3.org/2000/svg" xmlns:xlink="http://www.w3.org/1999/xlink">
    <!-- Generator: Sketch 48.2 (47327) - http://www.bohemiancoding.com/sketch -->
    <title>icon_6_</title>
    <desc>Created with Sketch.</desc>
    <defs></defs>
    <g id="01---Home-Page" stroke="none" stroke-width="1" fill="none" fill-rule="evenodd" transform="translate(-1272.000000, -713.000000)" opacity="0.699999988">
        <g id="Settori-intervento" transform="translate(54.000000, 628.000000)" fill="#A1A5B1" fill-rule="nonzero">
            <g id="4-automotive" transform="translate(1161.000000, 36.000000)">
                <g id="7" transform="translate(57.000000, 49.000000)">
                    <path d="M36.936362,8.15514375 L35.0284864,8.15514375 L32.8816277,1.12423603 C32.6741947,0.456279895 32.0580607,0 31.3563425,0 L15.3292442,0 C14.6278887,0 14.0059524,0.455918055 13.8039591,1.12423603 L11.6571003,8.15514375 L10.0629127,8.15514375 C9.47832883,8.15514375 9,8.63241035 9,9.21569599 L9,9.33220838 C9,9.91549402 9.47832883,10.3927606 10.0629127,10.3927606 L10.6953656,10.3927606 C10.6848489,10.4086816 10.6739696,10.4300301 10.6634529,10.4459511 C10.3976341,10.9072967 10.1372549,11.3632148 9.87179872,11.8086395 L9.87179872,17.4236683 C10.286302,17.8372512 10.6953656,18.2454064 11.1047919,18.6539234 L11.1047919,21.4907469 C10.918755,23.4685628 14.7501,23.5373124 14.7185499,21.4907469 L14.7185499,18.8236262 L31.6653161,18.8236262 L31.9256953,18.8022777 L31.9256953,21.490385 C31.8937825,23.5369505 35.7251276,23.468201 35.5394533,21.490385 L35.5394533,18.5265558 C35.9115271,18.1393873 36.3046344,17.763074 36.6767082,17.3918265 L36.6767082,11.4319643 C36.4906713,11.1084796 36.2995573,10.7745015 36.1135204,10.4455892 L36.9370873,10.4455892 C37.5216712,10.4455892 38,9.96832262 38,9.38503698 L38,9.21533415 C37.9992747,8.63241035 37.5209459,8.15514375 36.936362,8.15514375 Z M14.965534,2.5574935 C14.965534,2.25077694 15.2054612,2 15.4989078,2 L30.5010922,2 C30.7945388,2 31.034466,2.25077694 31.034466,2.5574935 L32,8 L14,8 L14.965534,2.5574935 Z M13.01154,15 C11.9037008,15 11,14.0933633 11,13 C11,11.8845144 11.9037008,11 13.01154,11 C14.1193792,11 15,11.8845144 15,13 C15,14.0937383 14.1193792,15 13.01154,15 Z M29.6553791,12 L16.3442593,12 C16.1587498,12 16,11.7851365 16,11.5035389 C16,11.2148635 16.1591115,11 16.3442593,11 L29.6553791,11 C29.8463128,11 30,11.2148635 30,11.5035389 C30,11.7851365 29.8463128,12 29.6553791,12 Z M29.6553791,16 L16.3442593,16 C16.1587498,16 16,15.7851365 16,15.5035389 C16,15.2148635 16.1591115,15 16.3442593,15 L29.6553791,15 C29.8463128,15 30,15.2148635 30,15.5035389 C30,15.7851365 29.8463128,16 29.6553791,16 Z M32.9970288,15 C31.894127,15 31,14.0933633 31,13 C31,11.8845144 31.894127,11 32.9970288,11 C34.0999307,11 35,11.8845144 35,13 C35,14.0937383 34.1003268,15 32.9970288,15 Z M46,43 L35.9226365,43 L35.9226365,39.3967896 L39.1210301,39.3967896 L39.1210301,27.5511495 L29,27.5511495 L29,23.9479392 L39.12066,23.9479392 L39.12066,11 L42.8016065,11 L42.8016065,39.3967896 L46,39.3967896 L46,43 Z M10.0773635,43 L0,43 L0,39.3967896 L3.19839352,39.3967896 L3.19839352,11 L6.87933999,11 L6.87933999,23.9483014 L17,23.9483014 L17,27.5515118 L6.87896994,27.5515118 L6.87896994,39.3971519 L10.0773635,39.3971519 L10.0773635,43 Z" id="icon_6_"></path>
                </g>
            </g>
        </g>
    </g>
</svg>