<?xml version="1.0" encoding="UTF-8"?>
<svg width="150px" height="29px" viewBox="0 0 150 29" version="1.1" xmlns="http://www.w3.org/2000/svg" xmlns:xlink="http://www.w3.org/1999/xlink">
    <!-- Generator: Sketch 48.2 (47327) - http://www.bohemiancoding.com/sketch -->
    <title>pomodoro_logo</title>
    <desc>Created with Sketch.</desc>
    <defs></defs>
    <g id="01---Home-Page" stroke="none" stroke-width="1" fill="none" fill-rule="evenodd" transform="translate(-215.000000, -48.000000)">
        <g id="Hero-area" transform="translate(215.000000, -47.000000)" fill="#353745">
            <g id="Header" transform="translate(0.000000, 47.000000)">
                <g id="pomodoro-dark" transform="translate(0.000000, 48.000000)">
                    <path d="M7.1890116e-16,0 C5.05881718,0 9.14634146,4.45506084 9.14634146,9.96875 C9.14634146,15.4824392 5.05881718,19.9375 0,19.9375 L0,0 Z M21.0365854,29 C15.480062,29 10.9756098,24.5368386 10.9756098,19.03125 C10.9756098,13.5256614 15.480062,9.0625 21.0365854,9.0625 C26.5931088,9.0625 31.097561,13.5256614 31.097561,19.03125 C31.097561,24.5368386 26.5931088,29 21.0365854,29 Z M63.1097561,29 C57.5532327,29 53.0487805,24.5368386 53.0487805,19.03125 C53.0487805,13.5256614 57.5532327,9.0625 63.1097561,9.0625 C68.6662795,9.0625 73.1707317,13.5256614 73.1707317,19.03125 C73.1707317,24.5368386 68.6662795,29 63.1097561,29 Z M75,9.0625 C80.0588172,9.0625 84.1463415,13.5175608 84.1463415,19.03125 C84.1463415,24.5449392 80.0588172,29 75,29 L75,9.0625 Z M96.0365854,29 C90.480062,29 85.9756098,24.5368386 85.9756098,19.03125 C85.9756098,13.5256614 90.480062,9.0625 96.0365854,9.0625 C101.593109,9.0625 106.097561,13.5256614 106.097561,19.03125 C106.097561,24.5368386 101.593109,29 96.0365854,29 Z M107.926829,18.125 C107.926829,13.1125553 112.423106,9.0625 117.987805,9.0625 C123.552504,9.0625 128.04878,13.1125553 128.04878,18.125 L107.926829,18.125 Z M139.939024,29 C134.382501,29 129.878049,24.5368386 129.878049,19.03125 C129.878049,13.5256614 134.382501,9.0625 139.939024,9.0625 C145.495548,9.0625 150,13.5256614 150,19.03125 C150,24.5368386 145.495548,29 139.939024,29 Z M32.9268293,9.0625 C37.9856464,9.0625 42.0731707,13.5175608 42.0731707,19.03125 C42.0731707,24.5449392 37.9856464,29 32.9268293,29 L32.9268293,9.0625 Z M51.2195122,9.0625 L51.2195122,29 C46.160695,29 42.0731707,24.5449392 42.0731707,19.03125 C42.0731707,13.5175608 46.160695,9.0625 51.2195122,9.0625 Z"></path>
                </g>
            </g>
        </g>
    </g>
</svg>